<?xml version="1.0" encoding="utf-8"?>
<svg xmlns="http://www.w3.org/2000/svg" viewBox="280 208 120 92" fill="#E30018" role="img" aria-label="Koch Reisen">
  <path d="M352.41,236.66c3.54-9.69,4.21-17.56-1.26-20.02c-5.58-2.51-11.15,3.16-16.19,12.18c-20.22-7.91-37.02-10.38-39.33-5.33c-2.32,5.07,10.8,16.05,30.3,25.94c-3.64,10.07-6.6,20.31-8.49,27.36c-7.52-2.67-13.63-3.23-14.62-1.09c-1.2,2.62,5.71,8.27,15.42,12.64c9.71,4.36,18.56,5.77,19.75,3.15c0.98-2.13-3.42-6.28-10.34-10.11c4.08-6.07,9.86-15.04,15.08-24.41c20.32,7.99,37.26,10.5,39.57,5.43C384.63,257.37,371.71,246.5,352.41,236.66z"/>
</svg>
